<?xml version="1.0" encoding="utf-8"?>
<!-- Generator: Adobe Illustrator 24.0.1, SVG Export Plug-In . SVG Version: 6.00 Build 0)  -->
<svg version="1.1" id="Calque_1" xmlns="http://www.w3.org/2000/svg" xmlns:xlink="http://www.w3.org/1999/xlink" x="0px" y="0px"
	 viewBox="0 0 2263.2 640.2" style="enable-background:new 0 0 2263.2 640.2;" xml:space="preserve">
<style type="text/css">
	.st0{fill:#818C8D;}
	.st1{fill:#1B8C69;}
	.st2{fill:#F4D949;}
	.st3{fill:#E65040;}
	.st4{fill:#F29E1C;}
</style>
<title>MOÏSE Afrique Gris</title>
<path class="st0" d="M816.2,267.8c-4.7,0-13.2-0.1-21.7,0c-8.7,0.1-15.7,3.3-19.7,11.5c-1,1.9-2.2,3.7-3.4,5.5
	c-11.1,17.8-22.1,35.7-32.6,53.9c-3.5,6.1-2.8,11.2,2.4,15.9c6,5.5,13.4,7.2,21.3,6.5c12-1.1,18.9,2.4,24.5,13
	c10,18.9,19.9,37.9,30,56.8c3.7,7,6.7,14.4,12.2,20.4c4.6,5,10.1,8,17.1,6.6c5.5-1.1,9.5-4.6,12.9-8.8
	c23.7-29.2,46.8-58.9,70.1-88.5c2.8-3.6,6.1-6.9,7.9-11.2c3.8-9-1-17.5-10.8-17.9c-11.5-0.5-18.9-6.3-23.8-16.3
	c-5.4-11.1-11.2-22-16.7-33c-4.3-8.7-11.4-12.6-20.8-13.3C850.2,267.9,835.1,267.5,816.2,267.8z"/>
<path class="st1" d="M766.1,598.9c-0.4-1.6,0.3-2.8,1.4-3.8c20.3-20.9,40.7-41.9,61-62.8c20.6-21.1,42.6-40.8,63.2-61.9
	c26.6-27.2,53.1-54.5,79.2-82.3c6.9-7.3,12-15.7,12.7-26.2c0.5-7.3-1-14.4-2.5-21.5c-0.3-1.2-0.5-2.4-0.8-3.7c2-0.8,3.3,0.1,4.6,1.4
	c16.4,16.1,32.7,32.2,49.1,48.3c15,14.7,30.1,29.4,45.2,44c3.8,3.7,4.8,7.6,3,12.7c-11.4,32.4-29.5,62.1-53,87.2
	c-35.8,38.3-79.4,63.3-130.5,75c-26.1,5.9-53,7.5-79.7,4.8c-16.8-1.5-33.3-4.9-49.4-9.9C768.2,600,767.1,599.5,766.1,598.9z"/>
<path class="st2" d="M1093.6,423c-3.5-3.3-6.7-6.2-9.7-9.2c-16.8-16.5-33.7-33-50.5-49.5c-18.6-18.2-37.2-36.4-55.8-54.6
	c-18.1-17.7-36.2-35.4-54.3-53.1c-12.4-12.1-24.6-24.4-37.1-36.5c-8.2-7.9-17.4-14.1-29-15.9c-6.6-1-13.3-0.4-19.6,1.7
	c-1.9,0.8-4.1,0.6-5.8-0.6c2.3-3.4,5.3-6.1,8.1-8.9c13.1-13.6,26.3-27,39.5-40.5c14.4-14.7,29-29.3,43.2-44.3
	c5.2-5.5,10.3-6.7,17.5-3.9c36.9,14.2,69.6,34.6,96.5,63.7c34.1,36.8,56.5,79.8,65.6,129.4c3.4,18.3,4.8,36.8,4.1,55.4
	c-0.7,18.2-4.1,36-8.8,53.5C1096.2,413.9,1095,418.1,1093.6,423z"/>
<path class="st3" d="M850.2,489.9c-0.8,2.3-2.1,4.3-3.8,6c-23.1,23.5-46.2,47.1-69.3,70.6c-7,7.1-14,14.3-20.9,21.5
	c-3.5,3.6-7.2,4.4-11.9,2.7c-32.4-11.5-62-29.7-87-53.4c-37.9-36-62.6-79.4-74.1-130.4c-6.3-27.7-7.7-56.3-4.1-84.5
	c1.6-13.1,4.3-26.1,8.1-38.8c0.8-2.6,1.8-5.1,2.8-8c4.7,2.5,8,6.1,11.4,9.5c15.6,15.7,31.8,30.8,47.7,46.2
	c17.3,16.7,34.1,34,50.7,51.5c13.4,14.1,27.4,27.4,41.4,40.8c16.8,16.1,33.8,32,50.1,48.6c4.2,4.4,8.8,8.5,13.8,12.1
	c12.8,9,26.6,11.2,41.6,6.8C847.8,490.6,848.8,490.3,850.2,489.9z"/>
<path class="st4" d="M828,81.4c7.6,0,15.2,0,22.7,0c20,1,39.7,4.5,58.9,10.2c4.4,1.3,4.8,2.4,1.6,5.7c-7.3,7.7-14.8,15.2-22.2,22.8
	c-29.1,29.7-58.3,59.5-87.4,89.2c-22.9,23.3-45.8,46.6-68.7,69.8c-8.6,8.8-17.8,17.1-25.2,27.1c-10.4,14.1-13.4,29.4-7.4,46.2
	c0.1,0.3,0.1,0.6,0.2,0.9c-1.2,1-2.6,1.7-4.1,2.1c-4.5-4.9-9.2-9.9-13.8-14.9c-25.3-27.8-52.6-53.6-79.6-79.6c-4-3.8-5.3-8-3.1-13.2
	c13.5-33.4,31.5-64,56.4-90.3c25.7-27.1,56.4-46.8,91.5-59.5C773.6,88.7,800.6,83.1,828,81.4z"/>
<path d="M0,81.4h125.7L265,305.5L404.3,81.4H530v529.9H414.1v-346L265,491.7h-3l-147.7-224v343.7H0V81.4z"/>
<path d="M1375.2,528.9l67-80.2c46.4,38.3,94.9,62.6,153.8,62.6c46.4,0,74.3-18.4,74.3-48.6v-1.5c0-28.7-17.7-43.4-103.8-65.5
	c-103.8-26.5-170.7-55.2-170.7-157.5v-1.5c0-93.5,75.1-155.3,180.3-155.3c75.1,0,139.1,23.6,191.4,65.5l-58.9,85.4
	c-45.6-31.6-90.5-50.8-134-50.8c-43.4,0-66.2,19.9-66.2,44.9v1.5c0,33.9,22.1,44.9,111.1,67.7c104.5,27.2,163.4,64.8,163.4,154.6
	v1.5c0,102.3-78,159.7-189.1,159.7C1515.7,611.4,1437,584.1,1375.2,528.9z"/>
<path d="M1176.9,81.4h116.6v529.9h-116.6V81.4z"/>
<path d="M1862,82.9h397.5V186h-282.3v106.9h248.4V396h-248.4v110.7h286.1v103.1H1862V82.9z"/>
<g>
	<path class="st0" d="M-1522.1,267.7c-4.7,0-13.3-0.1-21.7,0c-8.7,0.1-15.7,3.2-19.8,11.5c-1,1.9-2.1,3.7-3.4,5.5
		c-11.1,17.9-22.2,35.8-32.7,54.1c-3.5,6.1-2.9,11.2,2.4,16c6,5.5,13.5,7.2,21.3,6.5c12-1.1,19,2.4,24.6,13c10,18.9,19.9,38,30.1,57
		c3.7,7,6.8,14.5,12.2,20.5c4.6,5,10.1,8.1,17.2,6.6c5.5-1.1,9.6-4.6,12.9-8.8c23.8-29.3,46.9-59.1,70.3-88.8
		c2.9-3.6,6.1-7,7.9-11.2c3.8-9.1-1-17.5-10.9-17.9c-11.6-0.5-19-6.3-23.9-16.3c-5.5-11.1-11.2-22-16.7-33.1
		c-4.3-8.7-11.4-12.7-20.8-13.3C-1488,267.8-1503.1,267.5-1522.1,267.7z"/>
	<path d="M-143.3,523.9c-2.2,4.3-5.3,8-8.9,11c-2.2,1.9-11.4,9-24.1,8.4c-2.9-0.2-5.8-0.6-8.5-1.5c-5.9-2-11.4-5.3-16-9.6
		c-8.1-7.6-84.4-89.8-187.9-203.1c1.9,97.1,1.5,168,0,180.7c-0.8,6.7-3.2,13.1-6.9,18.7c-2.3,3.1-5,5.8-8.2,8.1
		c-10.8,8.3-25.3,9.3-37.2,2.8c-5.8-3.1-10.9-7.7-14.3-13.4c-4.6-7.6-5.1-15.8-5.3-18.6c-0.6-12.5-0.7-129.8,0-290.2
		c0.6-19.9,17.1-35.4,36.8-35c10.5,0.3,20.3,5.1,27,13.3c62,71.6,123.8,143.3,185.8,214.9c-2.4-99.3-2-172.5,0-193.7
		c0.4-4.2,1.6-13.2,8-21.1c1.2-1.5,10.6-12.7,26.3-13.5c12.5-0.5,24.4,5.5,31.4,15.9c4.8,7.1,5.9,14.8,6.2,20.1
		c0.8,15.3,1,131.1,0,290C-139.3,513.7-140.8,519.1-143.3,523.9z"/>
	<path d="M-1117.9,741.8c-1,6.1-2.8,12.1-5.5,17.6l0,0c-6.2,9.9-16.8,16.3-28.6,17c-12.1,0.6-23.6-4.7-30.8-14.4
		c-4.4-5.9-6.9-13-7.2-20.3l-0.6-370.2c0.3-4.7,0.6-9.5,0.8-14.1c0.1-2.3,0.3-5.7,0.6-9.6c1.1-11.7,3.3-23.2,6.7-34.4
		c5.6-18.4,14-35.7,24.9-51.5c9.7-14.2,21.3-27.1,34.6-38.2c14.7-12.4,31.3-22.4,49.1-29.8c9.9-4.1,20.2-7.1,30.7-9.2
		c20.2-3.9,41-3.6,61.1,0.9c13.6,3,27,7.3,39.7,13c14.4,6.3,28,14.3,40.5,23.7c10.4,7.8,30.5,23.3,47.4,50.7
		c13.6,22.1,22.1,47,24.9,72.8c9.3,99.3-63.8,187.4-163.2,196.6c-6.1,0.6-12.2,0.8-18.4,0.7c-7.6-0.1-15-2.6-21.2-7
		c-13.5-9.7-18.4-27.5-11.9-42.9c2.3-5.4,5.8-10.1,10.3-13.8c9.8-8.1,20.9-8.3,24.3-8.3c54.6,0.1,100.9-40.4,108.1-94.6
		c3.8-26.9-3.2-54.3-19.7-76c-7-9.5-15.5-17.6-25.1-24.4c-8-5.8-16.7-10.7-25.8-14.4c-8.2-3.3-21.1-8.4-38.8-8.7
		c-13.2,0-26.3,2.5-38.5,7.4c-14.8,6.2-28.2,15.6-39.1,27.5c-9.7,10.4-17.3,22.5-22.6,35.7c-5.8,14.8-8.3,30.8-7.3,46.7
		C-1116.7,579.9-1116.8,734.4-1117.9,741.8z"/>
	<path d="M-644.5,182.1c28.7,0.1,49.8,8.3,64.3,13.9c18.7,7.4,36.3,17.4,52.2,29.7c15.7,12.2,18.6,34.9,6.3,50.6
		c-5.8,7.4-14.3,12.3-23.7,13.5c-9.7,1.3-19.6-1.5-27.2-7.7c-1.8-1.4-4.3-3.3-7.3-5.6c-10.8-7.5-22.6-13.3-35.2-17.1
		c-12.4-3.8-25.4-5.2-38.3-4c-26.6,2.6-44.8,16.3-52.2,22c-16.7,13-29.3,30.4-36.5,50.4c-14.2,40.6-2.7,85.7,29.2,114.6
		c31.4,28.3,69.7,28,75,27.8c15.2-0.4,30.2-4,44-10.6c7.2-3.4,14-7.7,20.3-12.7c2.6-2.2,11.1-8.9,23.5-9
		c13.5-0.1,25.5,7.9,31.7,18.9c5.8,10.5,6.3,23.1,1.3,34c-2.2,4.6-5.5,8.7-9.4,12c-76.4,63.6-189.7,53.2-253.1-23.2
		c-44-53-53.8-126.4-25.4-189c9.4-20.5,22.4-39.1,38.3-55c9.6-9.6,33.1-32.7,71.5-45.1C-678.8,185-661.7,182.2-644.5,182.1z"/>
	<path class="st1" d="M-1572.3,599.7c-0.4-1.6,0.4-2.8,1.4-3.8c20.4-21,40.8-42,61.2-63c20.7-21.1,42.7-41,63.4-62.1
		c26.6-27.3,53.3-54.6,79.4-82.5c6.9-7.3,12.1-15.8,12.8-26.3c0.5-7.3-1-14.5-2.5-21.5c-0.3-1.2-0.6-2.4-0.8-3.7
		c2-0.8,3.3,0.2,4.6,1.4c16.4,16.1,32.8,32.3,49.3,48.4c15,14.7,30.1,29.5,45.3,44.2c3.8,3.7,4.8,7.6,3,12.7
		c-11.5,32.5-29.6,62.2-53.2,87.5c-36,38.4-79.6,63.5-131,75.2c-26.3,5.8-53.2,7.5-80,4.8c-16.8-1.6-33.4-4.8-49.5-9.9
		C-1570.1,600.7-1571.4,600.7-1572.3,599.7z"/>
	<path class="st2" d="M-1243.8,423.4c-3.5-3.3-6.7-6.2-9.7-9.2c-16.9-16.5-33.8-33.1-50.6-49.6c-18.6-18.3-37.3-36.5-56-54.7
		c-18.2-17.7-36.3-35.5-54.5-53.2c-12.4-12.2-24.7-24.5-37.2-36.6c-8.3-7.9-17.5-14.2-29.1-16c-6.6-1-13.4-0.5-19.7,1.7
		c-1.9,0.7-4.1,0.6-5.8-0.6c2.3-3.3,5.4-6.1,8.2-9c13.2-13.6,26.4-27.1,39.7-40.6c14.5-14.7,29-29.4,43.3-44.4
		c5.2-5.5,10.4-6.7,17.5-4c37,14.2,69.8,34.8,96.7,63.9c34.2,36.9,56.7,80.1,65.8,129.8c3.4,18.3,4.8,36.9,4.2,55.6
		c-0.6,18.3-4.1,36.1-8.8,53.7C-1241.3,414.3-1242.5,418.5-1243.8,423.4z"/>
	<path class="st3" d="M-1487.9,490.5c-0.7,2.3-2,4.4-3.8,5.9c-23.2,23.6-46.3,47.2-69.5,70.8c-7,7.1-14,14.3-21,21.6
		c-3.4,3.6-7.2,4.4-12,2.7c-32.5-11.5-62.2-29.8-87.2-53.5c-38-36.1-62.8-79.7-74.4-130.8c-6.3-27.8-7.7-56.5-4.1-84.8
		c1.6-13.2,4.4-26.3,8.1-39c0.7-2.6,1.9-5.2,2.9-8c4.6,2.5,8,6.1,11.4,9.6c15.6,15.8,31.9,30.9,47.9,46.3
		c17.3,16.8,34.2,34.1,50.8,51.6c13.5,14.1,27.5,27.5,41.6,40.9c16.8,16.1,33.9,32.1,50.3,48.7c4.3,4.5,8.9,8.5,13.8,12.2
		c12.8,9,26.7,11.2,41.7,6.8C-1490.3,491.2-1489.4,490.9-1487.9,490.5z"/>
	<path class="st4" d="M-1510.2,80.7c7.6,0,15.2,0,22.8,0c20,1,39.9,4.5,59.1,10.3c4.5,1.3,4.8,2.4,1.6,5.8
		c-7.3,7.7-14.8,15.3-22.3,22.9c-29.2,29.9-58.4,59.6-87.7,89.5c-22.9,23.4-45.9,46.8-68.9,70c-8.6,8.8-17.8,17.2-25.2,27.2
		c-10.5,14.2-13.5,29.5-7.4,46.3c0.1,0.3,0.2,0.6,0.2,0.9c-1.2,1-2.6,1.7-4.1,2.1c-4.5-4.9-9.2-9.9-13.8-15
		c-25.4-27.9-52.8-53.8-79.9-79.9c-4-3.9-5.3-8-3.2-13.3c13.5-33.5,31.6-64.2,56.6-90.5c25.8-27.2,56.6-46.9,91.7-59.6
		C-1564.8,88.1-1537.7,82.4-1510.2,80.7z"/>
	<path d="M-508.1,332.4c7.4,0.6,14.6,3.2,20.7,7.5c9.4,6.5,15.1,17.1,15.3,28.5c0,8.9-3.3,17.5-9.4,24.2c-6.3,6.9-15,11-24.4,11.7
		c-45.5-0.2-91.1-0.5-136.6-0.6c-19.8-0.5-35.3-16.9-34.9-36.6c0.1-4,0.8-7.9,2.2-11.6c2.5-6.7,6.9-12.4,12.6-16.7
		c4.7-3.5,10.3-5.8,16.1-6.9L-508.1,332.4z"/>
</g>
</svg>
