<svg id="Calque_1" data-name="Calque 1" xmlns="http://www.w3.org/2000/svg" viewBox="0 0 2264.34559 693.60387"><defs><style>.cls-1{fill:#fefefe;}.cls-2{fill:#fff;}.cls-3{fill:#1b8c69;}.cls-4{fill:#f4d949;}.cls-5{fill:#e65040;}.cls-6{fill:#f29e1c;}.cls-7{fill:#818c8d;}</style></defs><title>OPEN G</title><path class="cls-1" d="M-1602.8221-840.28492c-4.73516,0-13.20645-.07174-21.67592.01994-8.69825.09413-15.656,3.26354-19.68578,11.48609a62.68094,62.68094,0,0,1-3.37866,5.45857c-11.1341,17.806-22.1168,35.704-32.63369,53.883-3.53968,6.11852-2.82756,11.19163,2.38018,15.90912,6.04645,5.47724,13.39151,7.22847,21.30123,6.50664,11.95494-1.091,18.927,2.40837,24.52437,12.97423,10.01679,18.90814,19.87706,37.89946,29.96228,56.77088,3.734,6.987,6.74421,14.44655,12.21891,20.39425,4.60592,5.00391,10.06979,8.01822,17.11894,6.56113,5.46926-1.13051,9.48239-4.60236,12.88725-8.7933,23.729-29.20728,46.81078-58.92777,70.12077-88.4671,2.82946-3.58566,6.07592-6.903,7.90121-11.21413,3.81984-9.02207-1.03454-17.47858-10.8165-17.868-11.54133-.45951-18.91733-6.27146-23.82346-16.25424-5.43758-11.06409-11.21861-21.95958-16.65735-33.02311-4.27658-8.69942-11.37068-12.63633-20.75188-13.25536C-1568.9015-840.19086-1583.98527-840.59485-1602.8221-840.28492Z" transform="translate(1841.77918 1026.70519)"/><path class="cls-2" d="M-216.30745-584.93034a36.35648,36.35648,0,0,1-8.91576,10.9997c-2.25984,1.879-11.35445,8.97571-23.9969,8.44171a35.48637,35.48637,0,0,1-8.47539-1.48724,45.2858,45.2858,0,0,1-15.96262-9.54212c-8.08432-7.57507-84.15143-89.51373-187.38707-202.473,1.88418,96.7782,1.51925,167.42462-.02558,180.13092a43.62333,43.62333,0,0,1-6.8677,18.67261,36.80653,36.80653,0,0,1-8.1399,8.03894,35.0345,35.0345,0,0,1-16.15573,6.6394,35.22348,35.22348,0,0,1-20.95733-3.92694,36.77809,36.77809,0,0,1-7.10364-4.83081,36.87852,36.87852,0,0,1-7.158-8.44372c-4.63059-7.56708-5.12116-15.72565-5.25781-18.59375-.59656-12.52033-.7609-129.32312.02111-289.25458a36.05363,36.05363,0,0,1,3.11155-13.55261,36.3677,36.3677,0,0,1,9.73587-12.87146,35.93574,35.93574,0,0,1,9.66915-5.82874,35.8596,35.8596,0,0,1,13.67362-2.55176,36.01694,36.01694,0,0,1,15.2352,3.55066,35.70663,35.70663,0,0,1,12.19183,9.67737q92.58926,107.142,185.17853,214.284c-2.36021-99.07758-2.07556-172.02484.02945-193.05463.412-4.1156,1.56842-13.10583,7.95592-21.0448,1.21973-1.516,10.49646-12.66455,26.15754-13.4259a35.95968,35.95968,0,0,1,19.79374,4.9591,36.06409,36.06409,0,0,1,11.56185,10.823c4.814,7.10083,5.93979,14.76209,6.23152,20.09619.83388,15.24683,1.02619,130.66211-.02291,289.06787A36.317,36.317,0,0,1-216.30745-584.93034Z" transform="translate(1841.77918 1026.70519)"/><path class="cls-2" d="M-1213.962-367.671a67.01348,67.01348,0,0,1-5.41455,17.59088l-.00013.00049a36.24335,36.24335,0,0,1-13.49963,12.68262,35.92526,35.92526,0,0,1-14.93652,4.24036,35.80755,35.80755,0,0,1-17.76624-3.64313,36.115,36.115,0,0,1-12.89233-10.72193,36.88621,36.88621,0,0,1-7.17762-20.28924l-.53283-369.03974q.41034-7.04433.82055-14.08874c.0774-2.3324.234-5.59613.58118-9.48071a182.832,182.832,0,0,1,6.64441-34.2948,186.21164,186.21164,0,0,1,24.77576-51.32532,189.47468,189.47468,0,0,1,34.45471-38.06067,184.47252,184.47252,0,0,1,48.93317-29.65186,165.01178,165.01178,0,0,1,30.64038-9.12341,153.24171,153.24171,0,0,1,27.641-2.70093,154.01231,154.01231,0,0,1,33.28485,3.61048,198.54033,198.54033,0,0,1,39.62445,12.96008,207.133,207.133,0,0,1,40.45227,23.66248c10.3183,7.78418,30.41913,23.24694,47.25214,50.5841a174.07917,174.07917,0,0,1,24.77459,72.573,179.32262,179.32262,0,0,1-11.6607,82.65064,180.15706,180.15706,0,0,1-26.56763,45.98791,180.73216,180.73216,0,0,1-36.26416,34.49384,180.00606,180.00606,0,0,1-37.08441,20.43371,180.01619,180.01619,0,0,1-30.73187,9.348,181.00219,181.00219,0,0,1-38.64722,3.83338,37.41617,37.41617,0,0,1-21.18854-7.00855,35.91164,35.91164,0,0,1-9.01007-9.62811,35.91287,35.91287,0,0,1-5.63916-17.99542,35.68989,35.68989,0,0,1,2.77509-15.05335,36.3017,36.3017,0,0,1,10.308-13.81494,37.74893,37.74893,0,0,1,24.23822-8.2298,108.62286,108.62286,0,0,0,34.45142-5.5733,109.06919,109.06919,0,0,0,35.1723-19.65076,109.33566,109.33566,0,0,0,21.98785-24.94836,108.4895,108.4895,0,0,0,9.8775-19.52508,108.21812,108.21812,0,0,0,6.26911-24.65363,106.59768,106.59768,0,0,0-.69226-32.79388,106.013,106.013,0,0,0-18.92487-42.895,110.67193,110.67193,0,0,0-25.06439-24.3465,122.55794,122.55794,0,0,0-25.75189-14.3573c-8.16956-3.32825-21.08515-8.44971-38.63062-8.72156a101.28837,101.28837,0,0,0-38.41186,7.44336,111.97993,111.97993,0,0,0-38.99518,27.33624,113.36988,113.36988,0,0,0-22.56531,35.62275,110.61734,110.61734,0,0,0-7.2948,46.52258C-1212.78695-529.08689-1212.80417-375.03568-1213.962-367.671Z" transform="translate(1841.77918 1026.70519)"/><path class="cls-3" d="M-1653.00536-509.27826c-.4151-1.60928.33162-2.75945,1.36748-3.82582q30.496-31.39335,61.00137-62.77735c20.62023-21.08912,42.57-40.82786,63.17292-61.93828,26.57745-27.23218,53.13505-54.485,79.15215-82.25328,6.86469-7.32677,12.02279-15.72939,12.73838-26.15971.50181-7.313-.97392-14.39935-2.53094-21.47289-.26124-1.18668-.54129-2.36924-.84528-3.69608,1.98856-.81605,3.33871.14631,4.58921,1.37618q24.55266,24.14738,49.10382,48.29627,22.51572,22.06869,45.15236,44.0137c3.82193,3.69434,4.81556,7.59312,2.99487,12.6775a248.88976,248.88976,0,0,1-52.96293,87.17678q-53.76483,57.435-130.54239,75.03161a250.08829,250.08829,0,0,1-79.673,4.80437,235.99087,235.99087,0,0,1-49.36072-9.904A8.61357,8.61357,0,0,1-1653.00536-509.27826Z" transform="translate(1841.77918 1026.70519)"/><path class="cls-4" d="M-1325.45289-685.08828c-3.53608-3.33857-6.67129-6.20756-9.70605-9.179q-25.26391-24.73687-50.4907-49.51151-27.887-27.30464-55.81637-54.56613-27.14784-26.52922-54.29632-53.05781c-12.39024-12.14141-24.62226-24.44552-37.101-36.49486-8.18648-7.90481-17.43246-14.1204-29.0389-15.90635a42.55849,42.55849,0,0,0-19.62976,1.65585,6.461,6.461,0,0,1-5.83562-.55236c2.28744-3.36694,5.32934-6.06567,8.0975-8.937,13.10145-13.59,26.34944-27.03888,39.54653-40.53677,14.40843-14.73689,28.95427-29.34325,43.15627-44.27624,5.19624-5.46367,10.33963-6.69,17.47238-3.94965,36.85977,14.16147,69.55813,34.63567,96.45117,63.67119,34.12551,36.84409,56.45477,79.82357,65.56538,129.41064a252.70141,252.70141,0,0,1,4.12386,55.37364c-.69058,18.18771-4.106,35.98225-8.82308,53.53442C-1322.912-694.189-1324.10095-689.98242-1325.45289-685.08828Z" transform="translate(1841.77918 1026.70519)"/><path class="cls-5" d="M-1568.82583-618.23851a14.7687,14.7687,0,0,1-3.802,5.96153q-34.62968,35.28663-69.2511,70.58122c-6.99967,7.14084-14.007,14.27616-20.88807,21.53033-3.45088,3.6379-7.19647,4.3682-11.8943,2.68144a245.34155,245.34155,0,0,1-86.95475-53.39439q-56.84137-53.94413-74.14861-130.41773a243.3029,243.3029,0,0,1-4.08857-84.49831,239.11635,239.11635,0,0,1,8.0846-38.8444c.77591-2.61341,1.82606-5.14551,2.84181-7.971,4.65721,2.46682,7.95289,6.06469,11.36073,9.50788,15.57657,15.73818,31.82353,30.78355,47.73959,46.17068,17.31773,16.74213,34.09993,34.00526,50.69791,51.45629,13.36452,14.05139,27.44954,27.38321,41.43211,40.814,16.77573,16.1138,33.75153,32.02186,50.08455,48.59133a101.41312,101.41312,0,0,0,13.797,12.08313q19.1688,13.45461,41.59894,6.77442C-1571.25285-617.49838-1570.29256-617.79412-1568.82583-618.23851Z" transform="translate(1841.77918 1026.70519)"/><path class="cls-6" d="M-1591.02322-1026.69356q11.36907.01692,22.73811.03384a249.00144,249.00144,0,0,1,58.89989,10.228c4.44818,1.31462,4.77191,2.36935,1.58921,5.7116-7.3174,7.68422-14.76284,15.247-22.188,22.82814q-43.69979,44.61746-87.42667,89.2084-34.31946,34.95291-68.72439,69.822c-8.64038,8.80387-17.77309,17.14742-25.15076,27.14031-10.44516,14.14774-13.407,29.42749-7.43825,46.18216a6.80624,6.80624,0,0,1,.18876.91684,11.72989,11.72989,0,0,1-4.06589,2.14469c-4.52833-4.9138-9.17258-9.89888-13.75761-14.93777-25.29491-27.79876-52.57342-53.61722-79.64253-79.64225-3.99241-3.83844-5.26437-7.99262-3.14718-13.22093,13.51847-33.38338,31.49706-63.99558,56.38384-90.25844,25.71616-27.13807,56.36608-46.80986,91.49775-59.48243A284.06756,284.06756,0,0,1-1591.02322-1026.69356Z" transform="translate(1841.77918 1026.70519)"/><path class="cls-7" d="M-1602.8221-840.28492c18.83683-.30993,33.9206.09406,48.9919,1.0886,9.3812.619,16.4753,4.55594,20.75188,13.25536,5.43874,11.06353,11.21977,21.959,16.65735,33.02311,4.90613,9.98278,12.28213,15.79473,23.82346,16.25424,9.782.38944,14.63634,8.84595,10.8165,17.868-1.82529,4.31109-5.07175,7.62847-7.90121,11.21413-23.31,29.53933-46.39177,59.25982-70.12077,88.4671-3.40486,4.19094-7.418,7.66279-12.88725,8.7933-7.04915,1.45709-12.513-1.55722-17.11894-6.56113-5.4747-5.9477-8.48492-13.40724-12.21891-20.39425-10.08522-18.87142-19.94549-37.86274-29.96228-56.77088-5.59738-10.56586-12.56943-14.06526-24.52437-12.97423-7.90972.72183-15.25478-1.0294-21.30123-6.50664-5.20774-4.71749-5.91986-9.7906-2.38018-15.90912,10.51689-18.179,21.49959-36.077,32.63369-53.883a62.68094,62.68094,0,0,0,3.37866-5.45857c4.02978-8.22255,10.98753-11.392,19.68578-11.48609C-1616.02855-840.35666-1607.55726-840.28492-1602.8221-840.28492Z" transform="translate(1841.77918 1026.70519)"/><path class="cls-2" d="M-1602.8221-840.28492c18.83683-.30993,33.9206.09406,48.9919,1.0886,9.3812.619,16.4753,4.55594,20.75188,13.25536,5.43874,11.06353,11.21977,21.959,16.65735,33.02311,4.90613,9.98278,12.28213,15.79473,23.82346,16.25424,9.782.38944,14.63634,8.84595,10.8165,17.868-1.82529,4.31109-5.07175,7.62847-7.90121,11.21413-23.31,29.53933-46.39177,59.25982-70.12077,88.4671-3.40486,4.19094-7.418,7.66279-12.88725,8.7933-7.04915,1.45709-12.513-1.55722-17.11894-6.56113-5.4747-5.9477-8.48492-13.40724-12.21891-20.39425-10.08522-18.87142-19.94549-37.86274-29.96228-56.77088-5.59738-10.56586-12.56943-14.06526-24.52437-12.97423-7.90972.72183-15.25478-1.0294-21.30123-6.50664-5.20774-4.71749-5.91986-9.7906-2.38018-15.90912,10.51689-18.179,21.49959-36.077,32.63369-53.883a62.68094,62.68094,0,0,0,3.37866-5.45857c4.02978-8.22255,10.98753-11.392,19.68578-11.48609C-1616.02855-840.35666-1607.55726-840.28492-1602.8221-840.28492Z" transform="translate(1841.77918 1026.70519)"/><path class="cls-2" d="M-729.926-925.60654c28.59491.13269,49.6607,8.19946,64.05133,13.86511a211.79182,211.79182,0,0,1,52.02707,29.63672,36.1555,36.1555,0,0,1,10.65542,13.44006,36.10361,36.10361,0,0,1,2.92111,19.734,35.97725,35.97725,0,0,1-5.67669,15.00036,36.27218,36.27218,0,0,1-12.84345,11.76246,35.85229,35.85229,0,0,1-12.31988,4.02453,35.59739,35.59739,0,0,1-13.26691-.73205,35.78336,35.78336,0,0,1-13.86587-6.92347c-1.73728-1.41406-4.21894-3.355-7.30637-5.50671A121.85246,121.85246,0,0,0-700.645-848.30235a100.36362,100.36362,0,0,0-38.186-4.00915c-26.5857,2.56164-44.68567,16.23718-52.03437,21.93921a110.86566,110.86566,0,0,0-36.32043,50.201,107.14167,107.14167,0,0,0-6.10913,37.15051,106.77467,106.77467,0,0,0,15.86865,53.80817,106.45485,106.45485,0,0,0,19.34351,23.28234c31.32641,28.17395,69.44488,27.88892,74.759,27.767a107.83318,107.83318,0,0,0,43.81641-10.54181,106.40985,106.40985,0,0,0,20.21722-12.69525,36.89823,36.89823,0,0,1,23.36768-8.94629c13.47512-.06262,25.44464,7.86884,31.62466,18.82056a37.09126,37.09126,0,0,1,1.27826,33.83575,35.74055,35.74055,0,0,1-9.358,11.96985,180.50554,180.50554,0,0,1-50.8299,29.01105,180.43154,180.43154,0,0,1-62.80942,11.2699,181.597,181.597,0,0,1-88.12-23.0141,180.7675,180.7675,0,0,1-48.96533-40.35181,179.94551,179.94551,0,0,1-26.57349-41.64044,179.83016,179.83016,0,0,1-16.28833-77.74939,180.03284,180.03284,0,0,1,15.94672-69.39435,188.50311,188.50311,0,0,1,38.20807-54.84149c9.58679-9.60815,32.97851-32.51721,71.28448-44.97314A164.0382,164.0382,0,0,1-729.926-925.60654Z" transform="translate(1841.77918 1026.70519)"/><path class="cls-2" d="M-594.07507-775.85691a42.31736,42.31736,0,0,1,20.60672,7.44537,37.00681,37.00681,0,0,1,6.51358,5.79767,37.11117,37.11117,0,0,1,8.74469,22.62195,35.75237,35.75237,0,0,1-9.31217,24.10944,36.84128,36.84128,0,0,1-24.28652,11.681q-68.12093-.32154-136.2418-.64313a35.88531,35.88531,0,0,1-13.63861-3.14124,35.80572,35.80572,0,0,1-10.21057-6.93969,35.94615,35.94615,0,0,1-10.23877-18.76673,35.79676,35.79676,0,0,1,1.58142-19.16858,37.13911,37.13911,0,0,1,12.57227-16.62811,37.5371,37.5371,0,0,1,16.085-6.83984Z" transform="translate(1841.77918 1026.70519)"/><path class="cls-2" d="M-88.08057-758.53918v-1.46142c0-152.71582,120.02393-266.70459,280.78272-266.70459,87.29,0,157.84961,29.228,213.1333,77.45361L310.544-833.8009c-33.46094-28.49756-70.55957-44.57275-112.74952-44.57275-66.19482,0-114.20459,51.14893-114.20459,120.56494v1.46143c0,72.33935,50.1919,122.02685,121.47852,122.02685,29.09668,0,45.1001-4.38428,58.19336-11.6914v-51.14893h-87.29V-806.76525H422.56641v236.74609c-55.28418,45.30322-132.39014,76.72315-224.772,76.72315C39.21729-493.296-88.08057-599.97765-88.08057-758.53918Z" transform="translate(1841.77918 1026.70519)"/></svg>