<svg id="Calque_1" data-name="Calque 1" xmlns="http://www.w3.org/2000/svg" viewBox="0 0 3353.60194 693.60387"><defs><style>.cls-1{fill:#fefefe;}.cls-2{fill:#1b8c69;}.cls-3{fill:#f4d949;}.cls-4{fill:#e65040;}.cls-5{fill:#f29e1c;}.cls-6{fill:#818c8d;}</style></defs><title>OPEN GENERATION</title><path class="cls-1" d="M-1602.8221-840.28492c-4.73516,0-13.20645-.07174-21.67592.01994-8.69825.09413-15.656,3.26354-19.68578,11.48609a62.68094,62.68094,0,0,1-3.37866,5.45857c-11.1341,17.806-22.1168,35.704-32.63369,53.883-3.53968,6.11852-2.82756,11.19163,2.38018,15.90912,6.04645,5.47724,13.39151,7.22847,21.30123,6.50664,11.95494-1.091,18.927,2.40837,24.52437,12.97423,10.01679,18.90814,19.87706,37.89946,29.96228,56.77088,3.734,6.987,6.74421,14.44655,12.21891,20.39425,4.60592,5.00391,10.06979,8.01822,17.11894,6.56113,5.46926-1.13051,9.48239-4.60236,12.88725-8.7933,23.729-29.20728,46.81078-58.92777,70.12077-88.4671,2.82946-3.58566,6.07592-6.903,7.90121-11.21413,3.81984-9.02207-1.03454-17.47858-10.8165-17.868-11.54133-.45951-18.91733-6.27146-23.82346-16.25424-5.43758-11.06409-11.21861-21.95958-16.65735-33.02311-4.27658-8.69942-11.37068-12.63633-20.75188-13.25536C-1568.9015-840.19086-1583.98527-840.59485-1602.8221-840.28492Z" transform="translate(1841.77918 1026.70519)"/><path d="M-216.30745-584.93034a36.35648,36.35648,0,0,1-8.91576,10.9997c-2.25984,1.879-11.35445,8.97571-23.9969,8.44171a35.48637,35.48637,0,0,1-8.47539-1.48724,45.2858,45.2858,0,0,1-15.96262-9.54212c-8.08432-7.57507-84.15143-89.51373-187.38707-202.473,1.88418,96.7782,1.51925,167.42462-.02558,180.13092a43.62333,43.62333,0,0,1-6.8677,18.67261,36.80653,36.80653,0,0,1-8.1399,8.03894,35.0345,35.0345,0,0,1-16.15573,6.6394,35.22348,35.22348,0,0,1-20.95733-3.92694,36.77809,36.77809,0,0,1-7.10364-4.83081,36.87852,36.87852,0,0,1-7.158-8.44372c-4.63059-7.56708-5.12116-15.72565-5.25781-18.59375-.59656-12.52033-.7609-129.32312.02111-289.25458a36.05363,36.05363,0,0,1,3.11155-13.55261,36.3677,36.3677,0,0,1,9.73587-12.87146,35.93574,35.93574,0,0,1,9.66915-5.82874,35.8596,35.8596,0,0,1,13.67362-2.55176,36.01694,36.01694,0,0,1,15.2352,3.55066,35.70663,35.70663,0,0,1,12.19183,9.67737q92.58926,107.142,185.17853,214.284c-2.36021-99.07758-2.07556-172.02484.02945-193.05463.412-4.1156,1.56842-13.10583,7.95592-21.0448,1.21973-1.516,10.49646-12.66455,26.15754-13.4259a35.95968,35.95968,0,0,1,19.79374,4.9591,36.06409,36.06409,0,0,1,11.56185,10.823c4.814,7.10083,5.93979,14.76209,6.23152,20.09619.83388,15.24683,1.02619,130.66211-.02291,289.06787A36.317,36.317,0,0,1-216.30745-584.93034Z" transform="translate(1841.77918 1026.70519)"/><path d="M-1213.962-367.671a67.01348,67.01348,0,0,1-5.41455,17.59088l-.00013.00049a36.24335,36.24335,0,0,1-13.49963,12.68262,35.92526,35.92526,0,0,1-14.93652,4.24036,35.80755,35.80755,0,0,1-17.76624-3.64313,36.115,36.115,0,0,1-12.89233-10.72193,36.88621,36.88621,0,0,1-7.17762-20.28924l-.53283-369.03974q.41034-7.04433.82055-14.08874c.0774-2.3324.234-5.59613.58118-9.48071a182.832,182.832,0,0,1,6.64441-34.2948,186.21164,186.21164,0,0,1,24.77576-51.32532,189.47468,189.47468,0,0,1,34.45471-38.06067,184.47252,184.47252,0,0,1,48.93317-29.65186,165.01178,165.01178,0,0,1,30.64038-9.12341,153.24171,153.24171,0,0,1,27.641-2.70093,154.01231,154.01231,0,0,1,33.28485,3.61048,198.54033,198.54033,0,0,1,39.62445,12.96008,207.133,207.133,0,0,1,40.45227,23.66248c10.3183,7.78418,30.41913,23.24694,47.25214,50.5841a174.07917,174.07917,0,0,1,24.77459,72.573,179.32262,179.32262,0,0,1-11.6607,82.65064,180.15706,180.15706,0,0,1-26.56763,45.98791,180.73216,180.73216,0,0,1-36.26416,34.49384,180.00606,180.00606,0,0,1-37.08441,20.43371,180.01619,180.01619,0,0,1-30.73187,9.348,181.00219,181.00219,0,0,1-38.64722,3.83338,37.41617,37.41617,0,0,1-21.18854-7.00855,35.91164,35.91164,0,0,1-9.01007-9.62811,35.91287,35.91287,0,0,1-5.63916-17.99542,35.68989,35.68989,0,0,1,2.77509-15.05335,36.3017,36.3017,0,0,1,10.308-13.81494,37.74893,37.74893,0,0,1,24.23822-8.2298,108.62286,108.62286,0,0,0,34.45142-5.5733,109.06919,109.06919,0,0,0,35.1723-19.65076,109.33566,109.33566,0,0,0,21.98785-24.94836,108.4895,108.4895,0,0,0,9.8775-19.52508,108.21812,108.21812,0,0,0,6.26911-24.65363,106.59768,106.59768,0,0,0-.69226-32.79388,106.013,106.013,0,0,0-18.92487-42.895,110.67193,110.67193,0,0,0-25.06439-24.3465,122.55794,122.55794,0,0,0-25.75189-14.3573c-8.16956-3.32825-21.08515-8.44971-38.63062-8.72156a101.28837,101.28837,0,0,0-38.41186,7.44336,111.97993,111.97993,0,0,0-38.99518,27.33624,113.36988,113.36988,0,0,0-22.56531,35.62275,110.61734,110.61734,0,0,0-7.2948,46.52258C-1212.78695-529.08689-1212.80417-375.03568-1213.962-367.671Z" transform="translate(1841.77918 1026.70519)"/><path class="cls-2" d="M-1653.00536-509.27826c-.4151-1.60928.33162-2.75945,1.36748-3.82582q30.496-31.39335,61.00137-62.77735c20.62023-21.08912,42.57-40.82786,63.17292-61.93828,26.57745-27.23218,53.13505-54.485,79.15215-82.25328,6.86469-7.32677,12.02279-15.72939,12.73838-26.15971.50181-7.313-.97392-14.39935-2.53094-21.47289-.26124-1.18668-.54129-2.36924-.84528-3.69608,1.98856-.81605,3.33871.14631,4.58921,1.37618q24.55266,24.14738,49.10382,48.29627,22.51572,22.06869,45.15236,44.0137c3.82193,3.69434,4.81556,7.59312,2.99487,12.6775a248.88976,248.88976,0,0,1-52.96293,87.17678q-53.76483,57.435-130.54239,75.03161a250.08829,250.08829,0,0,1-79.673,4.80437,235.99087,235.99087,0,0,1-49.36072-9.904A8.61357,8.61357,0,0,1-1653.00536-509.27826Z" transform="translate(1841.77918 1026.70519)"/><path class="cls-3" d="M-1325.45289-685.08828c-3.53608-3.33857-6.67129-6.20756-9.70605-9.179q-25.26391-24.73687-50.4907-49.51151-27.887-27.30464-55.81637-54.56613-27.14784-26.52922-54.29632-53.05781c-12.39024-12.14141-24.62226-24.44552-37.101-36.49486-8.18648-7.90481-17.43246-14.1204-29.0389-15.90635a42.55849,42.55849,0,0,0-19.62976,1.65585,6.461,6.461,0,0,1-5.83562-.55236c2.28744-3.36694,5.32934-6.06567,8.0975-8.937,13.10145-13.59,26.34944-27.03888,39.54653-40.53677,14.40843-14.73689,28.95427-29.34325,43.15627-44.27624,5.19624-5.46367,10.33963-6.69,17.47238-3.94965,36.85977,14.16147,69.55813,34.63567,96.45117,63.67119,34.12551,36.84409,56.45477,79.82357,65.56538,129.41064a252.70141,252.70141,0,0,1,4.12386,55.37364c-.69058,18.18771-4.106,35.98225-8.82308,53.53442C-1322.912-694.189-1324.10095-689.98242-1325.45289-685.08828Z" transform="translate(1841.77918 1026.70519)"/><path class="cls-4" d="M-1568.82583-618.23851a14.7687,14.7687,0,0,1-3.802,5.96153q-34.62968,35.28663-69.2511,70.58122c-6.99967,7.14084-14.007,14.27616-20.88807,21.53033-3.45088,3.6379-7.19647,4.3682-11.8943,2.68144a245.34155,245.34155,0,0,1-86.95475-53.39439q-56.84137-53.94413-74.14861-130.41773a243.3029,243.3029,0,0,1-4.08857-84.49831,239.11635,239.11635,0,0,1,8.0846-38.8444c.77591-2.61341,1.82606-5.14551,2.84181-7.971,4.65721,2.46682,7.95289,6.06469,11.36073,9.50788,15.57657,15.73818,31.82353,30.78355,47.73959,46.17068,17.31773,16.74213,34.09993,34.00526,50.69791,51.45629,13.36452,14.05139,27.44954,27.38321,41.43211,40.814,16.77573,16.1138,33.75153,32.02186,50.08455,48.59133a101.41312,101.41312,0,0,0,13.797,12.08313q19.1688,13.45461,41.59894,6.77442C-1571.25285-617.49838-1570.29256-617.79412-1568.82583-618.23851Z" transform="translate(1841.77918 1026.70519)"/><path class="cls-5" d="M-1591.02322-1026.69356q11.36907.01692,22.73811.03384a249.00144,249.00144,0,0,1,58.89989,10.228c4.44818,1.31462,4.77191,2.36935,1.58921,5.7116-7.3174,7.68422-14.76284,15.247-22.188,22.82814q-43.69979,44.61746-87.42667,89.2084-34.31946,34.95291-68.72439,69.822c-8.64038,8.80387-17.77309,17.14742-25.15076,27.14031-10.44516,14.14774-13.407,29.42749-7.43825,46.18216a6.80624,6.80624,0,0,1,.18876.91684,11.72989,11.72989,0,0,1-4.06589,2.14469c-4.52833-4.9138-9.17258-9.89888-13.75761-14.93777-25.29491-27.79876-52.57342-53.61722-79.64253-79.64225-3.99241-3.83844-5.26437-7.99262-3.14718-13.22093,13.51847-33.38338,31.49706-63.99558,56.38384-90.25844,25.71616-27.13807,56.36608-46.80986,91.49775-59.48243A284.06756,284.06756,0,0,1-1591.02322-1026.69356Z" transform="translate(1841.77918 1026.70519)"/><path class="cls-6" d="M-1602.8221-840.28492c18.83683-.30993,33.9206.09406,48.9919,1.0886,9.3812.619,16.4753,4.55594,20.75188,13.25536,5.43874,11.06353,11.21977,21.959,16.65735,33.02311,4.90613,9.98278,12.28213,15.79473,23.82346,16.25424,9.782.38944,14.63634,8.84595,10.8165,17.868-1.82529,4.31109-5.07175,7.62847-7.90121,11.21413-23.31,29.53933-46.39177,59.25982-70.12077,88.4671-3.40486,4.19094-7.418,7.66279-12.88725,8.7933-7.04915,1.45709-12.513-1.55722-17.11894-6.56113-5.4747-5.9477-8.48492-13.40724-12.21891-20.39425-10.08522-18.87142-19.94549-37.86274-29.96228-56.77088-5.59738-10.56586-12.56943-14.06526-24.52437-12.97423-7.90972.72183-15.25478-1.0294-21.30123-6.50664-5.20774-4.71749-5.91986-9.7906-2.38018-15.90912,10.51689-18.179,21.49959-36.077,32.63369-53.883a62.68094,62.68094,0,0,0,3.37866-5.45857c4.02978-8.22255,10.98753-11.392,19.68578-11.48609C-1616.02855-840.35666-1607.55726-840.28492-1602.8221-840.28492Z" transform="translate(1841.77918 1026.70519)"/><path d="M-729.926-925.60654c28.59491.13269,49.6607,8.19946,64.05133,13.86511a211.79182,211.79182,0,0,1,52.02707,29.63672,36.1555,36.1555,0,0,1,10.65542,13.44006,36.10361,36.10361,0,0,1,2.92111,19.734,35.97725,35.97725,0,0,1-5.67669,15.00036,36.27218,36.27218,0,0,1-12.84345,11.76246,35.85229,35.85229,0,0,1-12.31988,4.02453,35.59739,35.59739,0,0,1-13.26691-.73205,35.78336,35.78336,0,0,1-13.86587-6.92347c-1.73728-1.41406-4.21894-3.355-7.30637-5.50671A121.85246,121.85246,0,0,0-700.645-848.30235a100.36362,100.36362,0,0,0-38.186-4.00915c-26.5857,2.56164-44.68567,16.23718-52.03437,21.93921a110.86566,110.86566,0,0,0-36.32043,50.201,107.14167,107.14167,0,0,0-6.10913,37.15051,106.77467,106.77467,0,0,0,15.86865,53.80817,106.45485,106.45485,0,0,0,19.34351,23.28234c31.32641,28.17395,69.44488,27.88892,74.759,27.767a107.83318,107.83318,0,0,0,43.81641-10.54181,106.40985,106.40985,0,0,0,20.21722-12.69525,36.89823,36.89823,0,0,1,23.36768-8.94629c13.47512-.06262,25.44464,7.86884,31.62466,18.82056a37.09126,37.09126,0,0,1,1.27826,33.83575,35.74055,35.74055,0,0,1-9.358,11.96985,180.50554,180.50554,0,0,1-50.8299,29.01105,180.43154,180.43154,0,0,1-62.80942,11.2699,181.597,181.597,0,0,1-88.12-23.0141,180.7675,180.7675,0,0,1-48.96533-40.35181,179.94551,179.94551,0,0,1-26.57349-41.64044,179.83016,179.83016,0,0,1-16.28833-77.74939,180.03284,180.03284,0,0,1,15.94672-69.39435,188.50311,188.50311,0,0,1,38.20807-54.84149c9.58679-9.60815,32.97851-32.51721,71.28448-44.97314A164.0382,164.0382,0,0,1-729.926-925.60654Z" transform="translate(1841.77918 1026.70519)"/><path d="M-594.07507-775.85691a42.31736,42.31736,0,0,1,20.60672,7.44537,37.00681,37.00681,0,0,1,6.51358,5.79767,37.11117,37.11117,0,0,1,8.74469,22.62195,35.75237,35.75237,0,0,1-9.31217,24.10944,36.84128,36.84128,0,0,1-24.28652,11.681q-68.12093-.32154-136.2418-.64313a35.88531,35.88531,0,0,1-13.63861-3.14124,35.80572,35.80572,0,0,1-10.21057-6.93969,35.94615,35.94615,0,0,1-10.23877-18.76673,35.79676,35.79676,0,0,1,1.58142-19.16858,37.13911,37.13911,0,0,1,12.57227-16.62811,37.5371,37.5371,0,0,1,16.085-6.83984Z" transform="translate(1841.77918 1026.70519)"/><path d="M-88.08057-758.53918v-1.46142c0-152.71582,120.02393-266.70459,280.78272-266.70459,87.29,0,157.84961,29.228,213.1333,77.45361L310.544-833.8009c-33.46094-28.49756-70.55957-44.57275-112.74952-44.57275-66.19482,0-114.20459,51.14893-114.20459,120.56494v1.46143c0,72.33935,50.1919,122.02685,121.47852,122.02685,29.09668,0,45.1001-4.38428,58.19336-11.6914v-51.14893h-87.29V-806.76525H422.56641v236.74609c-55.28418,45.30322-132.39014,76.72315-224.772,76.72315C39.21729-493.296-88.08057-599.97765-88.08057-758.53918Z" transform="translate(1841.77918 1026.70519)"/><path d="M477.73535-625.53869a64.321,64.321,0,0,0-1.40869,19.71875q.84522,9.58667,5.0708,15.49365,4.22535,5.91577,12.67627,6.76074,8.45068.84522,21.40918-5.916,19.71461-10.14111,36.90283-28.73291A234.11522,234.11522,0,0,0,580.8374-655.399q2.8125-5.07056,6.479-3.94385,3.6577,1.136,1.97168,5.63379A108.016,108.016,0,0,1,578.02-635.39855q-7.32861,9.86426-15.7749,19.4375A196.36484,196.36484,0,0,1,544.49805-598.214a219.66947,219.66947,0,0,1-17.1836,13.80322,138.6857,138.6857,0,0,1-18.874,9.85938,52.72533,52.72533,0,0,1-19.15576,4.50732,28.12449,28.12449,0,0,1-16.62012-4.50732q-7.31543-4.7798-11.26807-16.62012-2.8125-9.00586-1.97168-21.12744a126.52838,126.52838,0,0,1,4.22559-24.50782A102.24844,102.24844,0,0,1,473.228-660.1881q6.19263-10.98633,14.085-17.1836a32.68489,32.68489,0,0,1,13.52148-7.606,26.89784,26.89784,0,0,1,13.23975-.56348,16.12976,16.12976,0,0,1,9.57812,6.47949q3.65772,5.07055,2.53516,14.085a57.03526,57.03526,0,0,1-9.57764,22.25391,70.638,70.638,0,0,1-15.77539,16.6206q-8.45069,6.20581-15.49365,7.04248Q478.2898-618.21447,477.73535-625.53869Zm.563-2.25391a9.34426,9.34426,0,0,1,6.47949-5.91552q4.7798-1.39966,10.14112-3.38037a32.86786,32.86786,0,0,0,10.98632-7.32422q5.625-5.34815,9.01416-18.31055,1.69044-7.31543-1.127-9.01416c-1.88379-1.12695-4.2251-1.21484-7.04248-.28174a29.17977,29.17977,0,0,0-9.01416,5.35205,35.55182,35.55182,0,0,0-7.04248,7.32422,58.29176,58.29176,0,0,0-7.606,14.93018A133.53753,133.53753,0,0,0,478.29834-627.7926Z" transform="translate(1841.77918 1026.70519)"/><path d="M589.28076-604.12951q2.24487-3.93531,6.19776-11.83154,3.93456-7.88305,9.57763-16.90186,5.625-9.00585,11.83155-18.02881a72.094,72.094,0,0,1,12.958-14.64843q6.761-5.625,12.958-6.76075,6.19336-1.1228,11.83154,5.07032,4.50294,5.07056,5.91553,15.21191,1.39966,10.14111,2.81738,20.00049a68.36258,68.36258,0,0,0,4.2251,16.6206q2.8125,6.76026,10.70459,5.07032,7.31542-1.6897,20.84619-11.54932,13.52124-9.85107,31.5503-33.52246,2.24487-3.38013,6.19726-1.97168,3.93457,1.41284,0,7.60547A108.778,108.778,0,0,1,726.75049-636.525q-6.20655,7.051-13.52149,14.085-7.32861,7.051-14.64843,13.23975a82.9033,82.9033,0,0,1-13.522,9.57764q-19.72777,11.27709-29.85986,3.38037-10.14111-7.88305-11.26807-26.4795-1.13525-11.83154-1.12695-23.0996,0-11.26319-3.94385-12.39454-2.82569-1.12279-7.8872,4.22559-5.07055,5.3606-14.085,19.437a225.66637,225.66637,0,0,0-12.67676,22.2544,197.34776,197.34776,0,0,0-7.8877,18.31054q-3.10254,8.45069-5.35205,16.33838a170.45061,170.45061,0,0,1-5.63428,16.33887q-1.68969,4.50219-4.50683,6.19727a9.57616,9.57616,0,0,1-5.916,1.4082,9.05986,9.05986,0,0,1-5.63379-2.8169q-2.53564-2.53491-2.53515-7.606,0-5.07056,1.12646-18.5918,1.136-13.522,3.09863-28.45166,1.98122-14.92162,4.22559-28.17041,2.25806-13.23046,4.50733-18.87354,1.69042-5.07056,5.0708-7.04248a11.40508,11.40508,0,0,1,6.76074-1.69043,9.56224,9.56224,0,0,1,5.63379,2.25391,4.78463,4.78463,0,0,1,1.69043,4.78857Z" transform="translate(1841.77918 1026.70519)"/><path d="M735.20068-625.53869a64.32134,64.32134,0,0,0-1.40869,19.71875q.84522,9.58667,5.0708,15.49365,4.22535,5.91577,12.67627,6.76074,8.45069.84522,21.40918-5.916,19.71461-10.14111,36.90283-28.73291A234.11522,234.11522,0,0,0,838.30273-655.399q2.8125-5.07056,6.479-3.94385,3.6577,1.136,1.97168,5.63379a108.016,108.016,0,0,1-11.26807,18.31055q-7.32861,9.86426-15.7749,19.4375A196.36484,196.36484,0,0,1,801.96338-598.214a219.66947,219.66947,0,0,1-17.18359,13.80322,138.68581,138.68581,0,0,1-18.874,9.85938A52.72533,52.72533,0,0,1,746.75-570.04406a28.12451,28.12451,0,0,1-16.62012-4.50732q-7.31543-4.7798-11.26806-16.62012-2.8125-9.00586-1.97168-21.12744a126.52835,126.52835,0,0,1,4.22558-24.50782,102.24844,102.24844,0,0,1,9.57764-23.38134q6.19263-10.98633,14.085-17.1836a32.68489,32.68489,0,0,1,13.52148-7.606,26.89784,26.89784,0,0,1,13.23975-.56348,16.12981,16.12981,0,0,1,9.57813,6.47949q3.65771,5.07055,2.53515,14.085a57.03539,57.03539,0,0,1-9.57763,22.25391,70.63821,70.63821,0,0,1-15.7754,16.6206q-8.45067,6.20581-15.49365,7.04248Q735.75513-618.21447,735.20068-625.53869Zm.563-2.25391a9.34428,9.34428,0,0,1,6.47949-5.91552q4.7798-1.39966,10.14112-3.38037a32.868,32.868,0,0,0,10.98633-7.32422q5.625-5.34815,9.01416-18.31055,1.69042-7.31543-1.127-9.01416c-1.88379-1.12695-4.2251-1.21484-7.04248-.28174a29.17988,29.17988,0,0,0-9.01416,5.35205,35.55182,35.55182,0,0,0-7.04248,7.32422,58.29176,58.29176,0,0,0-7.606,14.93018A133.541,133.541,0,0,0,735.76367-627.7926Z" transform="translate(1841.77918 1026.70519)"/><path d="M902.52344-626.10217q-5.07129,1.13526-6.19824-1.12695a15.26683,15.26683,0,0,1-1.40821-5.63379c-.19385-2.2539-.47558-4.59521-.84521-7.04248a10.47778,10.47778,0,0,0-3.94385-6.47949,7.492,7.492,0,0,0-7.8877,0,28.12847,28.12847,0,0,0-7.32421,6.19775,60.80542,60.80542,0,0,0-6.19727,8.73242,59.92754,59.92754,0,0,0-3.94385,7.606,148.65969,148.65969,0,0,0-8.45068,24.78955q-2.82642,11.83155-6.76074,24.78955-2.25806,7.31544-5.63428,10.98633c-2.25342,2.43848-4.41895,3.66211-6.479,3.66211s-3.66211-1.22363-4.78907-3.66211q-1.68969-3.67089-1.12646-10.98633,1.68969-19.71459,4.2251-40.56445a191.475,191.475,0,0,0,.84521-40.00146q-.55444-7.88307,7.8877-10.14112,7.31543-1.69043,9.57763,3.94385a35.65984,35.65984,0,0,1,2.25391,13.23975,115.94408,115.94408,0,0,1-.84522,14.3667c-.56347,4.50732-.28173,6.95458.84522,7.32421a17.29013,17.29013,0,0,0,1.97168-3.38037q1.39965-2.8125,3.38037-6.19775,1.96728-3.38013,3.94385-6.76074,1.96728-3.38013,3.09863-5.07032,10.14111-14.644,19.4375-14.3667a20.17581,20.17581,0,0,1,15.21191,7.04249,27.25853,27.25853,0,0,1,6.76075,15.7749q.8452,9.019-5.916,12.395Z" transform="translate(1841.77918 1026.70519)"/><path d="M987.03125-638.49719q-2.25879,1.69044-7.8877,10.98633-5.63964,9.29591-13.24023,20.28223a133.75137,133.75137,0,0,1-16.90234,20.001q-9.2959,9.019-19.43653,10.14111-10.70947,1.12207-16.90234-2.53516a19.87409,19.87409,0,0,1-8.73242-10.42285A37.10429,37.10429,0,0,1,901.958-605.5382a100.39618,100.39618,0,0,1,2.8164-17.74707,126.77275,126.77275,0,0,1,12.11329-29.86035,129.70658,129.70658,0,0,1,19.4375-26.4795A117.30376,117.30376,0,0,1,961.96-699.90783,90.43838,90.43838,0,0,1,992.665-711.17541q15.76611-2.81323,24.22559,2.8169,8.45214,5.63819,10.70507,13.52148a17.62818,17.62818,0,0,1-.8457,10.14111q-1.98047,5.63818-8.16895,5.63428-3.38085-.55518-4.22558-2.53564a15.74709,15.74709,0,0,1-1.12695-4.50684,47.12534,47.12534,0,0,1-.28125-5.35254,8.25228,8.25228,0,0,0-1.69043-5.0708q-3.38087-4.50219-15.21192-2.81689a70.148,70.148,0,0,0-24.78906,9.01464,94.21913,94.21913,0,0,0-20.28223,16.33838,103.707,103.707,0,0,0-15.49414,21.40918,136.2028,136.2028,0,0,0-10.42285,24.22608q-3.37939,10.14111-3.09863,18.02881.27831,7.897,3.09863,12.67675a11.75556,11.75556,0,0,0,7.32422,5.91553q4.50293,1.136,9.57812-1.68994,14.07568-8.45142,21.97266-25.07129,7.88232-16.61207,16.33789-31.269,5.07129-7.88305,11.54981-7.32422,6.4702.56836,10.42285,6.76123,2.2456,3.94776,5.07129,8.73242a42.99539,42.99539,0,0,0,6.76074,8.73291,34.27968,34.27968,0,0,0,9.01367,6.479,27.50932,27.50932,0,0,0,12.39551,2.53515,31.8683,31.8683,0,0,0,14.92969-3.66211,68.06535,68.06535,0,0,0,12.958-8.73242,108.27258,108.27258,0,0,0,10.42286-10.1416q4.50293-5.07056,7.32421-8.45068a8.90769,8.90769,0,0,1,4.50782-3.38038,4.05068,4.05068,0,0,1,3.66211.56348,4.96573,4.96573,0,0,1,1.68945,3.38037q.27832,2.25806-1.97168,5.07031a117.71029,117.71029,0,0,1-26.76172,25.353q-14.93407,10.14111-29.57812,10.14112a47.15917,47.15917,0,0,1-25.63477-8.16895A143.95126,143.95126,0,0,1,987.03125-638.49719Z" transform="translate(1841.77918 1026.70519)"/><path d="M1120.55566-915.68957q.55518-3.38013,2.25391-11.26806,1.689-7.88307,3.66211-16.33838,1.96728-8.45142,4.22461-15.77539,2.2456-7.31544,3.94434-9.01416,5.625-6.19337,11.5498-3.94385,5.915,2.25805,6.47852,10.14111a59.0448,59.0448,0,0,1-1.68946,13.80322q-1.69042,7.051-4.22558,14.64844-2.53564,7.6062-5.07129,15.21192a90.9589,90.9589,0,0,0-3.66211,14.92968q-1.13526,4.51611-2.81641,13.522-1.69042,9.0183-3.38086,18.59179-1.69042,9.58668-2.53515,18.02881-.84522,8.45142.8457,11.83154a162.69483,162.69483,0,0,0,31.832-2.25341q17.74659-2.8125,32.958-3.94385,16.33448-1.12281,35.49512-1.12695,19.14551,0,38.59277.84521,19.437.84522,38.0293,2.81689a332.76448,332.76448,0,0,1,34.36718,5.35254,38.75744,38.75744,0,0,1,8.73243,3.38037q4.22607,2.25807.28222,8.45069a10.79133,10.79133,0,0,1-6.19726,4.50732,23.49124,23.49124,0,0,1-8.16993.84522,48.78473,48.78473,0,0,1-8.73242-1.40869c-3.01074-.748-5.63379-1.31153-7.88769-1.68995q-19.16016-2.8125-42.53711-4.78906-23.38477-1.96728-47.60645-2.53515-24.23143-.55518-47.88965.56347a342.13633,342.13633,0,0,0-42.81836,4.50684q-7.32861,1.136-10.98632,3.94385a14.68747,14.68747,0,0,0-5.07032,6.76074,31.92657,31.92657,0,0,0-1.69043,9.01465q-.29,5.07055-.84472,11.83105-7.897,56.91285-16.62012,116.90576-8.74218,60.00147-12.11328,120.84912-1.69043,27.04322-2.25391,53.80469-.56689,26.75244-.56347,53.80469c0,2.62305.65136,3.56494,1.97265,2.81689,1.31153-.75732,2.9043,0,4.78809,2.25342q2.814,4.50293-1.126,10.70459a40.667,40.667,0,0,1-7.27148,9.01465q-4.38427,2.8125-9.2959,5.352-4.8999,2.53565-7.65918-3.66211-1.69043-3.94774-1.97168-19.437-.27686-15.50244.28125-34.08594.56836-18.5918,1.12695-35.49414.56837-16.90211,1.127-23.09912,4.938-69.29809,14.85937-137.46973,9.93018-68.1621,19.50781-137.46923,1.69044-11.26392-1.127-11.26807-2.82568,0-14.58691,2.25342a469.406,469.406,0,0,0-48.79493,10.42285q-23.93994,6.48339-49.29785,10.98633c-2.2539.37841-4.87695.84521-7.88769,1.40869a47.32612,47.32612,0,0,1-8.73242.84521,10.91124,10.91124,0,0,1-7.043-2.2539q-2.8125-2.24489-2.25293-7.32422.56689-5.07055,3.66211-7.606a22.53168,22.53168,0,0,1,7.60547-3.94336,39.33445,39.33445,0,0,1,9.29589-1.69043q4.79443-.27759,8.7334-.84521a684.10907,684.10907,0,0,0,96.3584-13.52149,23.555,23.555,0,0,0,3.92676-.56347c1.875-.36963,3.84668-.84522,5.915-1.40821a38.87234,38.87234,0,0,0,5.63379-1.97217q2.53564-1.12206,3.09863-2.25341,1.12353-3.93531,2.81738-13.80323,1.69044-9.85107,3.09864-21.12744,1.40038-11.26391,2.53515-21.97265,1.12353-10.69629,2.25391-16.33887Z" transform="translate(1841.77918 1026.70519)"/><path d="M1251.26465-656.526c1.49609-2.25342,3.37988-2.90479,5.63379-1.97168q3.38085,1.41283,1.69043,4.22558a147.57751,147.57751,0,0,1-13.52149,21.12744,287.12916,287.12916,0,0,1-20.001,23.94434,245.94653,245.94653,0,0,1-22.81739,21.69092q-11.83154,9.86352-21.40918,13.23974a32.61524,32.61524,0,0,1-20.001,2.53516q-9.85108-1.98046-12.67676-13.23975a71.57,71.57,0,0,1-1.4082-17.74707,180.1809,180.1809,0,0,1,1.97168-21.69091q1.69043-11.26318,4.22558-21.69092,2.53564-10.418,4.78906-18.31055a14.79558,14.79558,0,0,1,5.35254-7.32373,13.83144,13.83144,0,0,1,8.73243-3.38086q6.76025.56836,5.915,4.78906-.84375,4.22535-1.97168,8.73291-1.13525,3.94776-3.94335,16.62012-2.82569,12.67675-4.50782,25.63477a87.02553,87.02553,0,0,0-.28125,23.09912q1.39893,10.14111,8.73242,9.01465,9.57423-1.12281,20.56446-9.01465a175.54371,175.54371,0,0,0,21.69043-18.5918,232.89851,232.89851,0,0,0,19.4375-21.97266A207.80207,207.80207,0,0,0,1251.26465-656.526Zm-75.4961-25.353a10.02248,10.02248,0,0,1-8.73242-1.68994,13.11282,13.11282,0,0,1-4.78906-7.8877,13.24715,13.24715,0,0,1,.8457-7.04248,14.86948,14.86948,0,0,1,3.94336-5.91553,11.67192,11.67192,0,0,1,5.916-2.81738q3.37939-.55445,6.76074,2.25391a15.92444,15.92444,0,0,1,5.07031,9.57763Q1186.47364-684.691,1175.76855-681.879Z" transform="translate(1841.77918 1026.70519)"/><path d="M1297.458-623.28527a77.2437,77.2437,0,0,1-1.97168,16.33838,51.89477,51.89477,0,0,1-6.76074,16.6206,45.19344,45.19344,0,0,1-12.39454,12.958q-7.60547,5.34815-18.874,4.78906-17.45654-.56835-24.79-11.5498-7.31542-10.98633-6.47851-25.63477.84521-14.644,8.73242-29.57861,7.897-14.9209,20.8457-22.81738,7.88379-3.93531,11.832-3.66211,3.93458.29076,6.76075,4.22558a18.25885,18.25885,0,0,1,10.7041-5.35254q6.19335-.84521,9.57812,4.78907,3.3794,5.07056,3.37988,14.93017v14.92969a31.89379,31.89379,0,0,0,13.80372-.84473,82.59366,82.59366,0,0,0,15.21191-5.63427,113.642,113.642,0,0,0,14.64844-8.45069,62.11241,62.11241,0,0,0,11.5498-9.85986,5.00461,5.00461,0,0,1,6.47852-.84473q3.65771,1.98048.28222,5.35205-11.27783,11.2771-28.45214,20.28223Q1314.35107-623.28087,1297.458-623.28527Zm-36.6211,38.87451a16.66609,16.66609,0,0,0,13.24024-4.50732,33.31055,33.31055,0,0,0,8.16894-12.39454,59.8,59.8,0,0,0,3.66211-14.36669,40.64725,40.64725,0,0,0,.28223-10.42286,29.08382,29.08382,0,0,1-11.26758-7.606,22.56366,22.56366,0,0,1-6.19824-11.54981v-4.50732a5.13949,5.13949,0,0,1-3.94336,3.38037,14.65385,14.65385,0,0,0-6.19727,3.38037q-5.63817,4.51611-9.85937,13.80371a57.99206,57.99206,0,0,0-5.07129,19.15527,33.10978,33.10978,0,0,0,2.81738,17.46534Q1250.1416-584.974,1260.83691-584.41076Z" transform="translate(1841.77918 1026.70519)"/><path d="M1362.24512-604.12951q2.24413-3.93531,6.19726-11.83154,3.93458-7.88305,9.57715-16.90186,5.62647-9.00585,11.832-18.02881a72.12345,72.12345,0,0,1,12.958-14.64843q6.76026-5.625,12.958-6.76075,6.19335-1.1228,11.83105,5.07032,4.50294,5.07056,5.916,15.21191,1.40038,10.14111,2.81738,20.00049a68.3388,68.3388,0,0,0,4.22559,16.6206q2.8125,6.76026,10.7041,5.07032,7.31543-1.6897,20.8457-11.54932,13.522-9.85107,31.55078-33.52246,2.24415-3.38013,6.19727-1.97168,3.93457,1.41284,0,7.60547a108.68842,108.68842,0,0,1-10.1416,13.24023q-6.20508,7.051-13.52149,14.085-7.32861,7.051-14.64843,13.23975a82.90146,82.90146,0,0,1-13.52149,9.57764q-19.72705,11.27709-29.86035,3.38037-10.14111-7.88305-11.26758-26.4795-1.13524-11.83154-1.127-23.0996,0-11.26319-3.94336-12.39454-2.82568-1.12279-7.8877,4.22559-5.07129,5.3606-14.085,19.437a225.56876,225.56876,0,0,0-12.67676,22.2544,197.48008,197.48008,0,0,0-7.88769,18.31054q-3.10254,8.45069-5.35254,16.33838a170.30782,170.30782,0,0,1-5.63379,16.33887q-1.69043,4.50219-4.50683,6.19727a9.5754,9.5754,0,0,1-5.916,1.4082,9.06106,9.06106,0,0,1-5.63379-2.8169q-2.53565-2.53491-2.53516-7.606,0-5.07056,1.127-18.5918,1.13524-13.522,3.09863-28.45166,1.98047-14.92162,4.22559-28.17041,2.25732-13.23046,4.50683-18.87354,1.69044-5.07056,5.07031-7.04248a11.40767,11.40767,0,0,1,6.76075-1.69043,9.56514,9.56514,0,0,1,5.63476,2.25391,4.784,4.784,0,0,1,1.68946,4.78857Z" transform="translate(1841.77918 1026.70519)"/></svg>